<svg width="24" height="23" viewBox="0 0 24 23" fill="none" xmlns="http://www.w3.org/2000/svg">
<g filter="url(#filter0_d_1_13)">
<path d="M16.6 12.5C16.4 12.4 15.1 11.8 14.9 11.7C14.7 11.6 14.5 11.6 14.3 11.8C14.1 12 13.7 12.6 13.5 12.8C13.4 13 13.2 13 13 12.9C12.3 12.6 11.6 12.2 11 11.7C10.5 11.2 10 10.6 9.6 10C9.5 9.80001 9.6 9.60001 9.7 9.50001C9.8 9.40001 9.9 9.20001 10.1 9.10001C10.2 9.00001 10.3 8.80001 10.3 8.70001C10.4 8.60001 10.4 8.40001 10.3 8.30001C10.2 8.20001 9.7 7.00001 9.5 6.50001C9.4 5.80001 9.2 5.80001 9 5.80001C8.9 5.80001 8.7 5.80001 8.5 5.80001C8.3 5.80001 8 6.00001 7.9 6.10001C7.3 6.70001 7 7.40001 7 8.20001C7.1 9.10001 7.4 10 8 10.8C9.1 12.4 10.5 13.7 12.2 14.5C12.7 14.7 13.1 14.9 13.6 15C14.1 15.2 14.6 15.2 15.2 15.1C15.9 15 16.5 14.5 16.9 13.9C17.1 13.5 17.1 13.1 17 12.7C17 12.7 16.8 12.6 16.6 12.5ZM19.1 3.40001C15.2 -0.499994 8.9 -0.499994 5 3.40001C1.8 6.60001 1.2 11.5 3.4 15.4L2 20.5L7.3 19.1C8.8 19.9 10.4 20.3 12 20.3C17.5 20.3 21.9 15.9 21.9 10.4C22 7.80001 20.9 5.30001 19.1 3.40001ZM16.4 17.4C15.1 18.2 13.6 18.7 12 18.7C10.5 18.7 9.1 18.3 7.8 17.6L7.5 17.4L4.4 18.2L5.2 15.2L5 14.9C2.6 10.9 3.8 5.90001 7.7 3.40001C11.6 0.900006 16.6 2.20001 19 6.00001C21.4 9.90001 20.3 15 16.4 17.4Z" fill="#F9F9F9"/>
</g>
<defs>
<filter id="filter0_d_1_13" x="-2" y="0.475006" width="27.9063" height="28.025" filterUnits="userSpaceOnUse" color-interpolation-filters="sRGB">
<feFlood flood-opacity="0" result="BackgroundImageFix"/>
<feColorMatrix in="SourceAlpha" type="matrix" values="0 0 0 0 0 0 0 0 0 0 0 0 0 0 0 0 0 0 127 0" result="hardAlpha"/>
<feOffset dy="4"/>
<feGaussianBlur stdDeviation="2"/>
<feComposite in2="hardAlpha" operator="out"/>
<feColorMatrix type="matrix" values="0 0 0 0 0 0 0 0 0 0 0 0 0 0 0 0 0 0 0.25 0"/>
<feBlend mode="normal" in2="BackgroundImageFix" result="effect1_dropShadow_1_13"/>
<feBlend mode="normal" in="SourceGraphic" in2="effect1_dropShadow_1_13" result="shape"/>
</filter>
</defs>
</svg>
